<?xml version="1.0" encoding="UTF-8" standalone="no"?>
<!-- Created with Inkscape (http://www.inkscape.org/) -->

<svg
   xmlns:dc="http://purl.org/dc/elements/1.1/"
   xmlns:cc="http://creativecommons.org/ns#"
   xmlns:rdf="http://www.w3.org/1999/02/22-rdf-syntax-ns#"
   xmlns:svg="http://www.w3.org/2000/svg"
   xmlns="http://www.w3.org/2000/svg"
   xmlns:xlink="http://www.w3.org/1999/xlink"
   xmlns:sodipodi="http://sodipodi.sourceforge.net/DTD/sodipodi-0.dtd"
   xmlns:inkscape="http://www.inkscape.org/namespaces/inkscape"
   width="100"
   height="100"
   viewBox="0 0 99.999997 99.999997"
   id="svg2"
   version="1.1"
   inkscape:version="0.92.2 5c3e80d, 2017-08-06"
   sodipodi:docname="ReceiveIcon.svg"
   inkscape:export-filename="/Users/nicolas/Desktop/particle.png"
   inkscape:export-xdpi="76.800003"
   inkscape:export-ydpi="76.800003">
  <defs
     id="defs4">
    <linearGradient
       id="linearGradient837"
       inkscape:collect="always">
      <stop
         id="stop833"
         offset="0"
         style="stop-color:#101010;stop-opacity:1;" />
      <stop
         id="stop835"
         offset="1"
         style="stop-color:#10103d;stop-opacity:1" />
    </linearGradient>
    <linearGradient
       gradientUnits="userSpaceOnUse"
       y2="762.36224"
       x2="140"
       y1="932.36224"
       x1="140"
       id="linearGradient839"
       xlink:href="#linearGradient837"
       inkscape:collect="always" />
  </defs>
  <sodipodi:namedview
     id="base"
     pagecolor="#000000"
     bordercolor="#666666"
     borderopacity="1.0"
     inkscape:pageopacity="0"
     inkscape:pageshadow="2"
     inkscape:zoom="2.8284271"
     inkscape:cx="62.417679"
     inkscape:cy="63.191039"
     inkscape:document-units="px"
     inkscape:current-layer="g1253"
     showgrid="true"
     inkscape:snap-midpoints="true"
     inkscape:snap-nodes="true"
     inkscape:snap-bbox="true"
     units="px"
     inkscape:window-width="1319"
     inkscape:window-height="723"
     inkscape:window-x="49"
     inkscape:window-y="0"
     inkscape:window-maximized="0"
     inkscape:snap-object-midpoints="true"
     inkscape:snap-center="true"
     inkscape:snap-smooth-nodes="true"
     inkscape:object-paths="true"
     inkscape:bbox-nodes="true">
    <inkscape:grid
       type="xygrid"
       id="grid4136" />
  </sodipodi:namedview>
  <metadata
     id="metadata7">
    <rdf:RDF>
      <cc:Work
         rdf:about="">
        <dc:format>image/svg+xml</dc:format>
        <dc:type
           rdf:resource="http://purl.org/dc/dcmitype/StillImage" />
        <dc:title></dc:title>
      </cc:Work>
    </rdf:RDF>
  </metadata>
  <g
     inkscape:label="Layer 1"
     inkscape:groupmode="layer"
     id="layer1"
     transform="translate(0,-952.36223)"
     style="opacity:1">
    <rect
       style="opacity:1;fill:#000080;fill-opacity:0;fill-rule:nonzero;stroke:none;stroke-width:1.06040943;stroke-linecap:round;stroke-linejoin:round;stroke-miterlimit:4;stroke-dasharray:none;stroke-opacity:1"
       id="rect876"
       width="101.55865"
       height="100.37485"
       x="-100"
       y="-1052.5497"
       ry="0"
       transform="scale(-1)" />
    <g
       id="g1133"
       transform="translate(0,-46)">
      <circle
         r="5"
         cy="962.36224"
         cx="10"
         id="path1037"
         style="fill:#ffffff;fill-opacity:1;stroke:none;stroke-width:11;stroke-linecap:round;stroke-linejoin:round;stroke-miterlimit:4;stroke-dasharray:none;stroke-dashoffset:26.39999962" />
      <rect
         ry="5"
         y="957.36224"
         x="35"
         height="10"
         width="20"
         id="rect1039"
         style="fill:#ffffff;fill-opacity:1;stroke:none;stroke-width:11;stroke-linecap:round;stroke-linejoin:round;stroke-miterlimit:4;stroke-dasharray:none;stroke-dashoffset:26.39999962" />
      <circle
         style="fill:#ffffff;fill-opacity:1;stroke:none;stroke-width:11;stroke-linecap:round;stroke-linejoin:round;stroke-miterlimit:4;stroke-dasharray:none;stroke-dashoffset:26.39999962"
         id="circle1041"
         cx="25"
         cy="962.36224"
         r="5" />
      <circle
         r="5"
         cy="962.36224"
         cx="65"
         id="circle1043"
         style="fill:#ffffff;fill-opacity:1;stroke:none;stroke-width:11;stroke-linecap:round;stroke-linejoin:round;stroke-miterlimit:4;stroke-dasharray:none;stroke-dashoffset:26.39999962" />
      <rect
         style="fill:#ffffff;fill-opacity:1;stroke:none;stroke-width:11;stroke-linecap:round;stroke-linejoin:round;stroke-miterlimit:4;stroke-dasharray:none;stroke-dashoffset:26.39999962"
         id="rect1045"
         width="20"
         height="10"
         x="5"
         y="972.36224"
         ry="5" />
      <circle
         r="5"
         cy="977.36224"
         cx="35"
         id="circle1047"
         style="fill:#ffffff;fill-opacity:1;stroke:none;stroke-width:11;stroke-linecap:round;stroke-linejoin:round;stroke-miterlimit:4;stroke-dasharray:none;stroke-dashoffset:26.39999962" />
      <circle
         style="fill:#ffffff;fill-opacity:1;stroke:none;stroke-width:11;stroke-linecap:round;stroke-linejoin:round;stroke-miterlimit:4;stroke-dasharray:none;stroke-dashoffset:26.39999962"
         id="circle1049"
         cx="50"
         cy="977.36224"
         r="5" />
      <circle
         r="5"
         cy="977.36224"
         cx="65"
         id="circle1051"
         style="fill:#ffffff;fill-opacity:1;stroke:none;stroke-width:11;stroke-linecap:round;stroke-linejoin:round;stroke-miterlimit:4;stroke-dasharray:none;stroke-dashoffset:26.39999962" />
      <rect
         ry="5"
         y="957.36224"
         x="75"
         height="10"
         width="20"
         id="rect1053"
         style="fill:#ffffff;fill-opacity:1;stroke:none;stroke-width:11;stroke-linecap:round;stroke-linejoin:round;stroke-miterlimit:4;stroke-dasharray:none;stroke-dashoffset:26.39999962" />
      <rect
         style="fill:#ffffff;fill-opacity:1;stroke:none;stroke-width:11;stroke-linecap:round;stroke-linejoin:round;stroke-miterlimit:4;stroke-dasharray:none;stroke-dashoffset:26.39999962"
         id="rect1055"
         width="20"
         height="10"
         x="75"
         y="972.36224"
         ry="5" />
      <rect
         ry="5"
         y="1032.3622"
         x="5"
         height="10"
         width="20"
         id="rect1057"
         style="fill:#ffffff;fill-opacity:1;stroke:none;stroke-width:11;stroke-linecap:round;stroke-linejoin:round;stroke-miterlimit:4;stroke-dasharray:none;stroke-dashoffset:26.39999962" />
      <circle
         style="fill:#ffffff;fill-opacity:1;stroke:none;stroke-width:11;stroke-linecap:round;stroke-linejoin:round;stroke-miterlimit:4;stroke-dasharray:none;stroke-dashoffset:26.39999962"
         id="circle1059"
         cx="35"
         cy="1037.3622"
         r="5" />
      <circle
         r="5"
         cy="1037.3622"
         cx="50"
         id="circle1061"
         style="fill:#ffffff;fill-opacity:1;stroke:none;stroke-width:11;stroke-linecap:round;stroke-linejoin:round;stroke-miterlimit:4;stroke-dasharray:none;stroke-dashoffset:26.39999962" />
      <circle
         style="fill:#ffffff;fill-opacity:1;stroke:none;stroke-width:11;stroke-linecap:round;stroke-linejoin:round;stroke-miterlimit:4;stroke-dasharray:none;stroke-dashoffset:26.39999962"
         id="circle1063"
         cx="65"
         cy="1037.3622"
         r="5" />
      <rect
         ry="5"
         y="1032.3622"
         x="75"
         height="10"
         width="20"
         id="rect1065"
         style="fill:#ffffff;fill-opacity:1;stroke:none;stroke-width:11;stroke-linecap:round;stroke-linejoin:round;stroke-miterlimit:4;stroke-dasharray:none;stroke-dashoffset:26.39999962" />
      <rect
         style="fill:#ffffff;fill-opacity:1;stroke:none;stroke-width:11;stroke-linecap:round;stroke-linejoin:round;stroke-miterlimit:4;stroke-dasharray:none;stroke-dashoffset:26.39999962"
         id="rect1067"
         width="20"
         height="10"
         x="5"
         y="1002.3622"
         ry="5" />
      <circle
         r="5"
         cy="1007.3622"
         cx="35"
         id="circle1069"
         style="fill:#ffffff;fill-opacity:1;stroke:none;stroke-width:11;stroke-linecap:round;stroke-linejoin:round;stroke-miterlimit:4;stroke-dasharray:none;stroke-dashoffset:26.39999962" />
      <circle
         style="fill:#ffffff;fill-opacity:1;stroke:none;stroke-width:11;stroke-linecap:round;stroke-linejoin:round;stroke-miterlimit:4;stroke-dasharray:none;stroke-dashoffset:26.39999962"
         id="circle1071"
         cx="50"
         cy="1007.3622"
         r="5" />
      <circle
         r="5"
         cy="1007.3622"
         cx="65"
         id="circle1073"
         style="fill:#ffffff;fill-opacity:1;stroke:none;stroke-width:11;stroke-linecap:round;stroke-linejoin:round;stroke-miterlimit:4;stroke-dasharray:none;stroke-dashoffset:26.39999962" />
      <rect
         style="fill:#ffffff;fill-opacity:1;stroke:none;stroke-width:11;stroke-linecap:round;stroke-linejoin:round;stroke-miterlimit:4;stroke-dasharray:none;stroke-dashoffset:26.39999962"
         id="rect1075"
         width="20"
         height="10"
         x="75"
         y="1002.3622"
         ry="5" />
      <circle
         style="fill:#ffffff;fill-opacity:1;stroke:none;stroke-width:11;stroke-linecap:round;stroke-linejoin:round;stroke-miterlimit:4;stroke-dasharray:none;stroke-dashoffset:26.39999962"
         id="circle1077"
         cx="10"
         cy="1022.3622"
         r="5" />
      <rect
         style="fill:#ffffff;fill-opacity:1;stroke:none;stroke-width:11;stroke-linecap:round;stroke-linejoin:round;stroke-miterlimit:4;stroke-dasharray:none;stroke-dashoffset:26.39999962"
         id="rect1079"
         width="20"
         height="10"
         x="20"
         y="1017.3622"
         ry="5" />
      <circle
         style="fill:#ffffff;fill-opacity:1;stroke:none;stroke-width:11;stroke-linecap:round;stroke-linejoin:round;stroke-miterlimit:4;stroke-dasharray:none;stroke-dashoffset:26.39999962"
         id="circle1083"
         cx="50"
         cy="1022.3622"
         r="5" />
      <circle
         transform="scale(-1,1)"
         r="5"
         cy="992.36224"
         cx="-90"
         id="circle1087"
         style="fill:#ffffff;fill-opacity:1;stroke:none;stroke-width:11;stroke-linecap:round;stroke-linejoin:round;stroke-miterlimit:4;stroke-dasharray:none;stroke-dashoffset:26.39999962" />
      <rect
         transform="scale(-1,1)"
         ry="5"
         y="987.36224"
         x="-65"
         height="10"
         width="20"
         id="rect1089"
         style="fill:#ffffff;fill-opacity:1;stroke:none;stroke-width:11;stroke-linecap:round;stroke-linejoin:round;stroke-miterlimit:4;stroke-dasharray:none;stroke-dashoffset:26.39999962" />
      <circle
         transform="scale(-1,1)"
         style="fill:#ffffff;fill-opacity:1;stroke:none;stroke-width:11;stroke-linecap:round;stroke-linejoin:round;stroke-miterlimit:4;stroke-dasharray:none;stroke-dashoffset:26.39999962"
         id="circle1091"
         cx="-75"
         cy="992.36224"
         r="5" />
      <circle
         transform="scale(-1,1)"
         r="5"
         cy="992.36224"
         cx="-35"
         id="circle1093"
         style="fill:#ffffff;fill-opacity:1;stroke:none;stroke-width:11;stroke-linecap:round;stroke-linejoin:round;stroke-miterlimit:4;stroke-dasharray:none;stroke-dashoffset:26.39999962" />
      <rect
         transform="scale(-1,1)"
         ry="5"
         y="987.36224"
         x="-25"
         height="10"
         width="20"
         id="rect1095"
         style="fill:#ffffff;fill-opacity:1;stroke:none;stroke-width:11;stroke-linecap:round;stroke-linejoin:round;stroke-miterlimit:4;stroke-dasharray:none;stroke-dashoffset:26.39999962" />
      <circle
         r="5"
         cy="1022.3622"
         cx="90"
         id="circle1097"
         style="fill:#ffffff;fill-opacity:1;stroke:none;stroke-width:11;stroke-linecap:round;stroke-linejoin:round;stroke-miterlimit:4;stroke-dasharray:none;stroke-dashoffset:26.39999962" />
      <rect
         ry="5"
         y="1017.3622"
         x="60"
         height="10"
         width="20"
         id="rect1101"
         style="fill:#ffffff;fill-opacity:1;stroke:none;stroke-width:11;stroke-linecap:round;stroke-linejoin:round;stroke-miterlimit:4;stroke-dasharray:none;stroke-dashoffset:26.39999962" />
    </g>
    <g
       id="g1253"
       transform="matrix(1.3270534,0,0,1.2253429,-148.86553,-195.13083)">
      <g
         id="text1137"
         style="font-style:normal;font-weight:normal;font-size:40px;line-height:1.25;font-family:sans-serif;letter-spacing:0px;word-spacing:0px;fill:#000000;fill-opacity:1;stroke:none"
         aria-label="kjsxdf"
         transform="translate(0,14.689766)">
        <path
           id="path1219"
           style="font-style:normal;font-variant:normal;font-weight:bold;font-stretch:normal;font-size:24px;line-height:0;font-family:Helvetica;-inkscape-font-specification:'Helvetica Bold';fill:#ffffff;fill-opacity:1"
           d="m 115.00671,1018.1118 h 3.28125 v 9.3047 l 4.16015,-4.8047 h 4.13672 l -4.46484,4.8867 4.64062,7.8282 h -4.03125 l -3.05859,-5.461 -1.38281,1.4414 v 4.0196 h -3.28125 z"
           inkscape:connector-curvature="0" />
        <path
           id="path1221"
           style="font-style:normal;font-variant:normal;font-weight:bold;font-stretch:normal;font-size:24px;line-height:0;font-family:Helvetica;-inkscape-font-specification:'Helvetica Bold';fill:#ffffff;fill-opacity:1"
           d="m 131.89342,1021.0298 h -3.33984 v -3.082 h 3.33984 z m -4.94531,16.7461 q 0.28125,0.023 0.39844,0.023 0.11719,0.012 0.21094,0.012 0.49218,0 0.73828,-0.2461 0.25781,-0.2343 0.25781,-0.9257 v -14.0274 h 3.33984 v 14.086 q 0,1.9335 -0.76171,2.8593 -0.76172,0.9258 -2.98829,0.9258 -0.15234,0 -0.45703,-0.012 -0.29297,-0.012 -0.73828,-0.023 z"
           inkscape:connector-curvature="0" />
        <path
           id="path1223"
           style="font-style:normal;font-variant:normal;font-weight:bold;font-stretch:normal;font-size:24px;line-height:0;font-family:Helvetica;-inkscape-font-specification:'Helvetica Bold';fill:#ffffff;fill-opacity:1"
           d="m 137.65905,1031.2485 q 0.10547,0.8907 0.45703,1.2657 0.62109,0.6679 2.29688,0.6679 0.98437,0 1.55859,-0.2929 0.58594,-0.293 0.58594,-0.8789 0,-0.5625 -0.46875,-0.8555 -0.46875,-0.293 -3.48047,-1.0078 -2.16797,-0.5391 -3.0586,-1.3477 -0.89062,-0.7969 -0.89062,-2.2969 0,-1.7695 1.38281,-3.0351 1.39453,-1.2774 3.91406,-1.2774 2.39063,0 3.89063,0.961 1.51172,0.9492 1.73437,3.2929 h -3.33984 q -0.0703,-0.6445 -0.36328,-1.0195 -0.55078,-0.6797 -1.875,-0.6797 -1.08984,0 -1.55859,0.3399 -0.45704,0.3398 -0.45704,0.7968 0,0.5743 0.49219,0.8321 0.49219,0.2695 3.48047,0.9258 1.99219,0.4687 2.98828,1.4179 0.98438,0.961 0.98438,2.4024 0,1.8984 -1.41797,3.1054 -1.40625,1.1954 -4.35938,1.1954 -3.01172,0 -4.45312,-1.2657 -1.42969,-1.2773 -1.42969,-3.2461 z m 2.55469,-9.0351 z"
           inkscape:connector-curvature="0" />
        <path
           id="path1225"
           style="font-style:normal;font-variant:normal;font-weight:bold;font-stretch:normal;font-size:24px;line-height:0;font-family:Helvetica;-inkscape-font-specification:'Helvetica Bold';fill:#ffffff;fill-opacity:1"
           d="m 147.16296,1035.3267 4.35937,-6.4688 -4.17187,-6.2812 h 4.08984 l 2.13281,3.7031 2.08594,-3.7031 h 3.97266 l -4.19532,6.2226 4.35938,6.5274 h -4.16016 l -2.20312,-3.8321 -2.21485,3.8321 z"
           inkscape:connector-curvature="0" />
        <path
           id="path1227"
           style="font-style:normal;font-variant:normal;font-weight:bold;font-stretch:normal;font-size:24px;line-height:0;font-family:Helvetica;-inkscape-font-specification:'Helvetica Bold';fill:#ffffff;fill-opacity:1"
           d="m 166.48717,1022.2485 q 1.16016,0 2.0625,0.5157 0.90235,0.5039 1.46485,1.4062 v -6.0937 h 3.38672 v 17.25 h -3.2461 v -1.7696 q -0.71484,1.1367 -1.6289,1.6524 -0.91407,0.5156 -2.27344,0.5156 -2.23828,0 -3.77344,-1.8047 -1.52344,-1.8164 -1.52344,-4.6523 0,-3.2696 1.5,-5.1446 1.51172,-1.875 4.03125,-1.875 z m 0.72657,10.6641 q 1.41797,0 2.15625,-1.0547 0.73828,-1.0547 0.73828,-2.7305 0,-2.3437 -1.1836,-3.3515 -0.72656,-0.6094 -1.6875,-0.6094 -1.46484,0 -2.15625,1.1133 -0.67968,1.1015 -0.67968,2.7422 0,1.7695 0.6914,2.8359 0.70313,1.0547 2.1211,1.0547 z"
           inkscape:connector-curvature="0" />
        <path
           id="path1229"
           style="font-style:normal;font-variant:normal;font-weight:bold;font-stretch:normal;font-size:24px;line-height:0;font-family:Helvetica;-inkscape-font-specification:'Helvetica Bold';fill:#ffffff;fill-opacity:1"
           d="m 181.15905,1017.8774 q 0.31641,0 0.57422,0.024 0.25781,0.012 0.70312,0.047 v 2.7187 q -0.28125,-0.035 -0.94922,-0.047 -0.65625,-0.023 -0.91406,0.293 -0.24609,0.3047 -0.24609,0.6797 0,0.375 0,1.0781 h 2.1914 v 2.3555 h -2.1914 v 10.3008 h -3.32813 v -10.3008 h -1.86328 v -2.3555 h 1.82813 v -0.8203 q 0,-2.0508 0.6914,-2.8242 0.72657,-1.1485 3.50391,-1.1485 z"
           inkscape:connector-curvature="0" />
      </g>
      <g
         id="text1153"
         style="font-style:normal;font-weight:normal;font-size:40px;line-height:1.25;font-family:sans-serif;letter-spacing:0px;word-spacing:0px;fill:#000000;fill-opacity:1;stroke:none"
         aria-label="dsfdfk">
        <path
           id="path1206"
           style="font-style:normal;font-variant:normal;font-weight:bold;font-stretch:normal;font-size:24px;line-height:0;font-family:Helvetica;-inkscape-font-specification:'Helvetica Bold';fill:#ffffff;fill-opacity:1"
           d="m 120.24809,1002.2668 q 1.16015,0 2.0625,0.5157 0.90234,0.5039 1.46484,1.4062 v -6.09373 h 3.38672 v 17.25003 h -3.2461 v -1.7696 q -0.71484,1.1368 -1.6289,1.6524 -0.91406,0.5156 -2.27344,0.5156 -2.23828,0 -3.77344,-1.8047 -1.52343,-1.8164 -1.52343,-4.6523 0,-3.2696 1.5,-5.1446 1.51171,-1.875 4.03125,-1.875 z m 0.72656,10.6641 q 1.41797,0 2.15625,-1.0547 0.73828,-1.0547 0.73828,-2.7304 0,-2.3438 -1.18359,-3.3516 -0.72657,-0.6094 -1.6875,-0.6094 -1.46485,0 -2.15625,1.1133 -0.67969,1.1016 -0.67969,2.7422 0,1.7695 0.6914,2.8359 0.70313,1.0547 2.1211,1.0547 z"
           inkscape:connector-curvature="0" />
        <path
           id="path1208"
           style="font-style:normal;font-variant:normal;font-weight:bold;font-stretch:normal;font-size:24px;line-height:0;font-family:Helvetica;-inkscape-font-specification:'Helvetica Bold';fill:#ffffff;fill-opacity:1"
           d="m 132.81059,1011.2668 q 0.10546,0.8907 0.45703,1.2657 0.62109,0.6679 2.29687,0.6679 0.98438,0 1.5586,-0.2929 0.58593,-0.293 0.58593,-0.8789 0,-0.5625 -0.46875,-0.8555 -0.46875,-0.293 -3.48047,-1.0078 -2.16796,-0.5391 -3.05859,-1.3477 -0.89062,-0.7968 -0.89062,-2.2968 0,-1.7696 1.38281,-3.0352 1.39453,-1.2773 3.91406,-1.2773 2.39063,0 3.89063,0.9609 1.51171,0.9492 1.73437,3.293 h -3.33984 q -0.0703,-0.6446 -0.36328,-1.0196 -0.55079,-0.6797 -1.875,-0.6797 -1.08985,0 -1.5586,0.3399 -0.45703,0.3398 -0.45703,0.7969 0,0.5742 0.49219,0.832 0.49219,0.2695 3.48047,0.9258 1.99218,0.4687 2.98828,1.4179 0.98437,0.961 0.98437,2.4024 0,1.8984 -1.41797,3.1055 -1.40625,1.1953 -4.35937,1.1953 -3.01172,0 -4.45313,-1.2657 -1.42968,-1.2773 -1.42968,-3.2461 z m 2.55468,-9.0351 z"
           inkscape:connector-curvature="0" />
        <path
           id="path1210"
           style="font-style:normal;font-variant:normal;font-weight:bold;font-stretch:normal;font-size:24px;line-height:0;font-family:Helvetica;-inkscape-font-specification:'Helvetica Bold';fill:#ffffff;fill-opacity:1"
           d="m 148.27934,997.89575 q 0.3164,0 0.57421,0.0234 0.25782,0.0117 0.70313,0.0469 v 2.71875 q -0.28125,-0.035 -0.94922,-0.047 -0.65625,-0.023 -0.91406,0.293 -0.2461,0.3047 -0.2461,0.6797 0,0.375 0,1.0781 h 2.19141 v 2.3555 h -2.19141 v 10.3008 h -3.32812 v -10.3008 h -1.86328 v -2.3555 h 1.82812 v -0.8203 q 0,-2.05078 0.69141,-2.82422 0.72656,-1.14844 3.50391,-1.14844 z"
           inkscape:connector-curvature="0" />
        <path
           id="path1212"
           style="font-style:normal;font-variant:normal;font-weight:bold;font-stretch:normal;font-size:24px;line-height:0;font-family:Helvetica;-inkscape-font-specification:'Helvetica Bold';fill:#ffffff;fill-opacity:1"
           d="m 156.29496,1002.2668 q 1.16016,0 2.0625,0.5157 0.90234,0.5039 1.46484,1.4062 v -6.09373 h 3.38672 v 17.25003 h -3.24609 v -1.7696 q -0.71484,1.1368 -1.62891,1.6524 -0.91406,0.5156 -2.27343,0.5156 -2.23829,0 -3.77344,-1.8047 -1.52344,-1.8164 -1.52344,-4.6523 0,-3.2696 1.5,-5.1446 1.51172,-1.875 4.03125,-1.875 z m 0.72656,10.6641 q 1.41797,0 2.15625,-1.0547 0.73828,-1.0547 0.73828,-2.7304 0,-2.3438 -1.18359,-3.3516 -0.72656,-0.6094 -1.6875,-0.6094 -1.46484,0 -2.15625,1.1133 -0.67969,1.1016 -0.67969,2.7422 0,1.7695 0.69141,2.8359 0.70312,1.0547 2.12109,1.0547 z"
           inkscape:connector-curvature="0" />
        <path
           id="path1214"
           style="font-style:normal;font-variant:normal;font-weight:bold;font-stretch:normal;font-size:24px;line-height:0;font-family:Helvetica;-inkscape-font-specification:'Helvetica Bold';fill:#ffffff;fill-opacity:1"
           d="m 170.96684,997.89575 q 0.3164,0 0.57421,0.0234 0.25782,0.0117 0.70313,0.0469 v 2.71875 q -0.28125,-0.035 -0.94922,-0.047 -0.65625,-0.023 -0.91406,0.293 -0.2461,0.3047 -0.2461,0.6797 0,0.375 0,1.0781 h 2.19141 v 2.3555 h -2.19141 v 10.3008 h -3.32812 v -10.3008 h -1.86328 v -2.3555 h 1.82812 v -0.8203 q 0,-2.05078 0.69141,-2.82422 0.72656,-1.14844 3.50391,-1.14844 z"
           inkscape:connector-curvature="0" />
        <path
           id="path1216"
           style="font-style:normal;font-variant:normal;font-weight:bold;font-stretch:normal;font-size:24px;line-height:0;font-family:Helvetica;-inkscape-font-specification:'Helvetica Bold';fill:#ffffff;fill-opacity:1"
           d="m 174.23637,998.13013 h 3.28125 v 9.30467 l 4.16015,-4.8047 h 4.13672 l -4.46484,4.8867 4.64062,7.8282 h -4.03125 l -3.05859,-5.461 -1.38281,1.4414 v 4.0196 h -3.28125 z"
           inkscape:connector-curvature="0" />
      </g>
      <g
         id="text1169"
         style="font-style:normal;font-weight:normal;font-size:40px;line-height:1.25;font-family:sans-serif;letter-spacing:0px;word-spacing:0px;fill:#000000;fill-opacity:1;stroke:none"
         aria-label="htbsie">
        <path
           id="path1193"
           style="font-style:normal;font-variant:normal;font-weight:bold;font-stretch:normal;font-size:24px;line-height:0;font-family:Helvetica;-inkscape-font-specification:'Helvetica Bold';fill:#ffffff;fill-opacity:1"
           d="m 122.26279,981.79919 q 1.1836,0 2.14454,0.41016 0.97265,0.41016 1.59375,1.25391 0.52734,0.71484 0.64453,1.47656 0.11718,0.75 0.11718,2.46094 v 7.5 h -3.41015 v -7.76953 q 0,-1.03125 -0.35156,-1.66407 -0.45704,-0.89062 -1.73438,-0.89062 -1.32422,0 -2.01562,0.89062 -0.67969,0.87891 -0.67969,2.51953 v 6.91407 h -3.32813 v -17.21485 h 3.32813 v 6.10547 q 0.72656,-1.11328 1.67578,-1.54687 0.96094,-0.44532 2.01562,-0.44532 z"
           inkscape:connector-curvature="0" />
        <path
           id="path1195"
           style="font-style:normal;font-variant:normal;font-weight:bold;font-stretch:normal;font-size:24px;line-height:0;font-family:Helvetica;-inkscape-font-specification:'Helvetica Bold';fill:#ffffff;fill-opacity:1"
           d="m 128.5792,984.62341 v -2.3789 h 1.78125 v -3.5625 h 3.30469 v 3.5625 h 2.07422 v 2.3789 h -2.07422 v 6.75 q 0,0.78516 0.19922,0.98438 0.19922,0.1875 1.21875,0.1875 0.15234,0 0.3164,0 0.17578,-0.0117 0.33985,-0.0234 v 2.49609 l -1.58203,0.0586 q -2.36719,0.082 -3.23438,-0.82031 -0.5625,-0.57422 -0.5625,-1.76954 v -7.86328 z"
           inkscape:connector-curvature="0" />
        <path
           id="path1197"
           style="font-style:normal;font-variant:normal;font-weight:bold;font-stretch:normal;font-size:24px;line-height:0;font-family:Helvetica;-inkscape-font-specification:'Helvetica Bold';fill:#ffffff;fill-opacity:1"
           d="m 144.80967,981.84607 q 2.51953,0 3.9375,1.81641 1.42969,1.8164 1.42969,4.6875 0,2.97656 -1.40625,4.93359 -1.40625,1.95703 -3.92578,1.95703 -1.58204,0 -2.54297,-0.63281 -0.57422,-0.375 -1.24219,-1.3125 v 1.60547 h -3.26953 v -17.25 h 3.32812 v 6.14062 q 0.63282,-0.89062 1.39453,-1.35937 0.90235,-0.58594 2.29688,-0.58594 z m -0.85547,10.64062 q 1.28906,0 2.00391,-1.04296 0.71484,-1.04297 0.71484,-2.74219 0,-1.35938 -0.35156,-2.25 -0.66797,-1.6875 -2.46094,-1.6875 -1.81641,0 -2.49609,1.65234 -0.35157,0.87891 -0.35157,2.27344 0,1.64062 0.72657,2.71875 0.72656,1.07812 2.21484,1.07812 z"
           inkscape:connector-curvature="0" />
        <path
           id="path1199"
           style="font-style:normal;font-variant:normal;font-weight:bold;font-stretch:normal;font-size:24px;line-height:0;font-family:Helvetica;-inkscape-font-specification:'Helvetica Bold';fill:#ffffff;fill-opacity:1"
           d="m 155.18076,990.82263 q 0.10547,0.89063 0.45703,1.26563 0.6211,0.66797 2.29688,0.66797 0.98437,0 1.55859,-0.29297 0.58594,-0.29297 0.58594,-0.87891 0,-0.5625 -0.46875,-0.85547 -0.46875,-0.29297 -3.48047,-1.00781 -2.16797,-0.53906 -3.05859,-1.34766 -0.89063,-0.79687 -0.89063,-2.29687 0,-1.76953 1.38282,-3.03516 1.39453,-1.27734 3.91406,-1.27734 2.39062,0 3.89062,0.96094 1.51172,0.94921 1.73438,3.29296 h -3.33985 q -0.0703,-0.64453 -0.36328,-1.01953 -0.55078,-0.67968 -1.875,-0.67968 -1.08984,0 -1.55859,0.33984 -0.45703,0.33984 -0.45703,0.79687 0,0.57422 0.49219,0.83204 0.49218,0.26953 3.48046,0.92578 1.99219,0.46875 2.98829,1.41797 0.98437,0.96093 0.98437,2.40234 0,1.89844 -1.41797,3.10547 -1.40625,1.19531 -4.35937,1.19531 -3.01172,0 -4.45313,-1.26562 -1.42969,-1.27735 -1.42969,-3.2461 z m 2.55469,-9.03515 z"
           inkscape:connector-curvature="0" />
        <path
           id="path1201"
           style="font-style:normal;font-variant:normal;font-weight:bold;font-stretch:normal;font-size:24px;line-height:0;font-family:Helvetica;-inkscape-font-specification:'Helvetica Bold';fill:#ffffff;fill-opacity:1"
           d="m 169.37217,980.60388 h -3.38672 v -3.08203 h 3.38672 z m -3.38672,1.52344 h 3.38672 v 12.77344 h -3.38672 z"
           inkscape:connector-curvature="0" />
        <path
           id="path1203"
           style="font-style:normal;font-variant:normal;font-weight:bold;font-stretch:normal;font-size:24px;line-height:0;font-family:Helvetica;-inkscape-font-specification:'Helvetica Bold';fill:#ffffff;fill-opacity:1"
           d="m 177.63389,984.54138 q -1.16016,0 -1.80469,0.72656 -0.63281,0.72657 -0.79687,1.96875 h 5.1914 q -0.082,-1.32421 -0.80859,-2.0039 -0.71485,-0.69141 -1.78125,-0.69141 z m 0,-2.7539 q 1.59375,0 2.87109,0.59765 1.27735,0.59766 2.10938,1.88672 0.75,1.13672 0.97265,2.63672 0.12891,0.87891 0.10547,2.53125 h -8.74219 q 0.0703,1.92187 1.20704,2.69531 0.6914,0.48047 1.66406,0.48047 1.03125,0 1.67578,-0.58594 0.35156,-0.3164 0.62109,-0.8789 h 3.41016 q -0.12891,1.13672 -1.18359,2.30859 -1.64063,1.86328 -4.59375,1.86328 -2.4375,0 -4.30079,-1.57031 -1.86328,-1.57031 -1.86328,-5.10938 0,-3.3164 1.67578,-5.08593 1.6875,-1.76953 4.3711,-1.76953 z m 0.23437,0 z"
           inkscape:connector-curvature="0" />
      </g>
    </g>
    <flowRoot
       xml:space="preserve"
       id="flowRoot1181"
       style="fill:black;fill-opacity:1;stroke:none;font-family:sans-serif;font-style:normal;font-weight:normal;font-size:40px;line-height:1.25;letter-spacing:0px;word-spacing:0px"><flowRegion
         id="flowRegion1183"><rect
           id="rect1185"
           width="30"
           height="50"
           x="170"
           y="-80" /></flowRegion><flowPara
         id="flowPara1187"></flowPara></flowRoot>  </g>
</svg>
